HIERARCHY
ROOT Hips
{
	OFFSET 0.000000 0.000000 0.000000
	CHANNELS 6 Xposition Yposition Zposition Zrotation Yrotation Xrotation 
	JOINT LHipJoint
	{
		OFFSET 0.000000 0.000000 0.000000
		CHANNELS 3 Zrotation Yrotation Xrotation
		JOINT LeftUpLeg
		{
			OFFSET 1.363060 -1.794630 0.839290
			CHANNELS 3 Zrotation Yrotation Xrotation
			JOINT LeftLeg
			{
				OFFSET 2.448110 -6.726130 0.000000
				CHANNELS 3 Zrotation Yrotation Xrotation
				JOINT LeftFoot
				{
					OFFSET 2.562200 -7.039590 0.000000
					CHANNELS 3 Zrotation Yrotation Xrotation
					JOINT LeftToeBase
					{
						OFFSET 0.157640 -0.433110 2.322550
						CHANNELS 3 Zrotation Yrotation Xrotation
						End Site
						{
							OFFSET 0.000000 0.000000 0.000000
						}
					}
				}
			}
		}
	}
	JOINT RHipJoint
	{
		OFFSET 0.000000 0.000000 0.000000
		CHANNELS 3 Zrotation Yrotation Xrotation
		JOINT RightUpLeg
		{
			OFFSET -1.305520 -1.794630 0.839290
			CHANNELS 3 Zrotation Yrotation Xrotation
			JOINT RightLeg
			{
				OFFSET -2.542530 -6.985550 0.000000
				CHANNELS 3 Zrotation Yrotation Xrotation
				JOINT RightFoot
				{
					OFFSET -2.568260 -7.056230 0.000000
					CHANNELS 3 Zrotation Yrotation Xrotation
					JOINT RightToeBase
					{
						OFFSET -0.164730 -0.452590 2.363150
						CHANNELS 3 Zrotation Yrotation Xrotation
						End Site
						{
							OFFSET 0.000000 0.000000 0.000000
						}
					}
				}
			}
		}
	}
	JOINT LowerBack
	{
		OFFSET 0.000000 0.000000 0.000000
		CHANNELS 3 Zrotation Yrotation Xrotation
		JOINT Spine
		{
			OFFSET 0.028270 2.035590 -0.193380
			CHANNELS 3 Zrotation Yrotation Xrotation
			JOINT Spine1
			{
				OFFSET 0.056720 2.048850 -0.042750
				CHANNELS 3 Zrotation Yrotation Xrotation
				JOINT Neck
				{
					OFFSET 0.000000 0.000000 0.000000
					CHANNELS 3 Zrotation Yrotation Xrotation
					JOINT Neck1
					{
						OFFSET -0.054170 1.746240 0.172020
						CHANNELS 3 Zrotation Yrotation Xrotation
						JOINT Head
						{
							OFFSET 0.104070 1.761360 -0.123970
							CHANNELS 3 Zrotation Yrotation Xrotation
							End Site
							{
								OFFSET 0.000000 0.000000 0.000000
							}
						}
					}
				}
				JOINT LeftShoulder
				{
					OFFSET 0.000000 0.000000 0.000000
					CHANNELS 3 Zrotation Yrotation Xrotation
					JOINT LeftArm
					{
						OFFSET 3.362410 1.200890 -0.311210
						CHANNELS 3 Zrotation Yrotation Xrotation
						JOINT LeftForeArm
						{
							OFFSET 4.983000 -0.000000 -0.000000
							CHANNELS 3 Zrotation Yrotation Xrotation
							JOINT LeftHand
							{
								OFFSET 3.483560 -0.000000 -0.000000
								CHANNELS 3 Zrotation Yrotation Xrotation
								JOINT LeftFingerBase
								{
									OFFSET 0.000000 0.000000 0.000000
									CHANNELS 3 Zrotation Yrotation Xrotation
									JOINT LeftHandIndex1
									{
										OFFSET 0.715260 -0.000000 -0.000000
										CHANNELS 3 Zrotation Yrotation Xrotation
										End Site
										{
											OFFSET 0.000000 0.000000 0.000000
										}
									}
								}
								JOINT LThumb
								{
									OFFSET 0.000000 0.000000 0.000000
									CHANNELS 3 Zrotation Yrotation Xrotation
									End Site
									{
										OFFSET 0.000000 0.000000 0.000000
									}
								}
							}
						}
					}
				}
				JOINT RightShoulder
				{
					OFFSET 0.000000 0.000000 0.000000
					CHANNELS 3 Zrotation Yrotation Xrotation
					JOINT RightArm
					{
						OFFSET -3.136600 1.374050 -0.404650
						CHANNELS 3 Zrotation Yrotation Xrotation
						JOINT RightForeArm
						{
							OFFSET -5.241900 -0.000000 -0.000000
							CHANNELS 3 Zrotation Yrotation Xrotation
							JOINT RightHand
							{
								OFFSET -3.444170 -0.000000 -0.000000
								CHANNELS 3 Zrotation Yrotation Xrotation
								JOINT RightFingerBase
								{
									OFFSET 0.000000 0.000000 0.000000
									CHANNELS 3 Zrotation Yrotation Xrotation
									JOINT RightHandIndex1
									{
										OFFSET -0.622530 -0.000000 -0.000000
										CHANNELS 3 Zrotation Yrotation Xrotation
										End Site
										{
											OFFSET 0.000000 0.000000 0.000000
										}
									}
								}
								JOINT RThumb
								{
									OFFSET 0.000000 0.000000 0.000000
									CHANNELS 3 Zrotation Yrotation Xrotation
									End Site
									{
										OFFSET 0.000000 0.000000 0.000000
									}
								}
							}
						}
					}
				}
			}
		}
	}
}
MOTION
Frames: 6
Frame Time: 0.008333
-11.772435 17.494065 -37.409208 -0.297666 -2.412118 -1.500132 -0.168244 0.142298 0.666189 -15.230908 -9.944860 -28.294801 13.435496 19.390176 70.952124 0.414713 -0.044156 5.643586 0.712600 -5.395000 -15.038800 -0.465679 -0.871536 0.991665 22.888336 4.613726 -23.056659 -5.776268 -14.603959 46.105384 2.917847 -11.436007 -2.560374 -0.081700 1.843500 -5.073500 -0.052042 -3.111296 12.565391 1.902241 -4.077378 -2.443172 6.322823 -1.605823 -5.963281 -9.862569 1.561859 -3.891882 2.118910 3.216422 8.979998 2.948500 0.895500 5.733800 -2.998844 3.035848 -3.818564 -82.778386 25.643340 39.105595 52.030676 -54.451645 -36.635372 -1.237535 -2.422261 -11.094305 22.176822 3.622067 2.582900 -7.125000 0.000000 0.000000 -2.380100 36.359800 0.506000 0.718668 -2.040005 -1.254717 76.402470 -14.436215 53.412209 -102.418759 61.311347 -77.951556 1.812182 -0.629264 -7.615742 -13.021190 23.100605 -6.056600 7.125000 0.000000 0.000000 8.966700 -5.693800 8.135400 
-11.775585 17.491020 -36.834336 -0.559765 -2.416099 -1.780240 -0.173394 0.033794 0.480951 -15.064639 -10.206037 -29.785755 12.584457 19.237581 68.465529 0.390623 0.146012 5.964608 0.743300 -5.507200 -15.361100 -0.460746 -0.938630 1.115372 23.095363 4.261827 -21.274062 -6.122729 -14.782727 47.341850 2.733920 -10.919037 -3.667511 -0.134300 2.361600 -6.506200 0.519327 -2.401620 12.764142 1.782980 -3.064900 -2.331302 5.466327 -1.124335 -5.754843 -9.126661 0.931217 -4.189798 2.042949 2.284244 9.003114 2.735700 0.475000 5.916300 -2.941842 3.057703 -3.799638 -81.489729 26.347525 40.653960 52.288123 -54.641681 -36.922041 -1.166167 -2.497242 -11.166332 21.958994 4.538829 2.982100 -7.125000 0.000000 0.000000 -2.684800 37.428000 0.500800 0.588653 -2.081510 -1.221566 74.768474 -16.558907 53.633848 -109.851595 60.509884 -83.058813 1.631835 -0.686964 -8.256229 -13.630216 22.723762 -6.158700 7.125000 0.000000 0.000000 8.691900 -5.950700 7.836800 
-11.728650 17.565360 -36.154150 -0.765170 -4.465889 -2.507942 -0.246694 -0.030128 0.307030 -15.329831 -8.642432 -29.997296 11.459376 18.848925 65.130633 0.147757 1.198781 6.109398 0.664500 -5.213200 -14.517700 -0.417980 -1.045988 1.174851 23.002464 4.845816 -18.509783 -6.514872 -14.988513 48.673184 2.476811 -10.145117 -3.527249 -0.367200 3.892200 -10.773500 1.817264 -1.113611 12.075761 1.484831 -1.265863 -1.871389 3.557630 -0.311372 -3.892564 -8.302917 0.305869 -5.346500 2.035085 1.399328 9.136203 2.628800 0.094200 6.203700 -2.964230 3.205911 -3.667072 -79.775381 26.124327 42.559459 52.943473 -55.024427 -37.679658 -1.084192 -2.509535 -12.239310 21.259262 4.330675 2.788700 -7.125000 0.000000 0.000000 -3.291500 37.149400 0.636600 0.507089 -2.262260 -1.160282 75.972117 -15.084786 52.246091 -112.138613 60.116755 -84.522740 1.604763 -0.742460 -8.718830 -14.219733 23.039526 -6.486800 7.125000 0.000000 0.000000 8.375500 -5.495600 7.618600 
-11.836274 17.510865 -35.787072 -0.973359 -0.470011 -1.989754 -0.303063 -0.223684 0.128921 -14.604154 -11.972570 -32.550509 10.307943 18.576601 61.788886 0.358332 0.593454 7.983279 0.771400 -5.608300 -15.652100 -0.518391 -0.986201 1.308134 23.542903 2.081678 -19.695396 -7.097616 -15.321998 50.463921 2.625305 -10.592279 -2.782789 -0.793300 5.685300 -15.874100 0.476631 -3.045783 12.860487 1.914122 -3.924571 -2.273277 6.152658 -1.492345 -5.675896 -9.721364 1.110534 -2.685602 2.299530 2.469870 8.611322 2.965500 0.601400 5.263200 -2.759234 3.238659 -3.878025 -81.780774 29.435521 39.694243 55.253930 -55.943583 -39.889206 -0.997071 -2.472744 -13.561951 20.564891 4.148103 2.591100 -7.125000 0.000000 0.000000 -3.894000 36.843300 0.782800 0.401082 -2.051023 -1.037844 74.139366 -14.614645 55.510565 -115.089004 59.499632 -86.572889 1.667726 -0.782121 -10.098372 -15.143836 24.148070 -7.215300 7.125000 0.000000 0.000000 7.870300 -4.167800 7.348500 
-11.739465 17.633925 -35.027086 -0.868061 -3.531457 -2.505142 -0.493692 -0.276545 0.013255 -15.442010 -9.708145 -32.045591 8.889704 17.825435 57.454160 -0.160274 2.609834 6.973658 1.071800 -6.581000 -18.480000 -0.444491 -1.096084 1.367423 22.547649 3.198340 -16.972534 -7.474938 -15.514715 51.722223 2.025154 -8.697141 -0.650032 -1.439600 7.585500 -21.462000 1.709103 -1.081467 11.779256 1.554940 -1.263608 -1.946321 4.134743 -0.234049 -4.270151 -8.733076 0.099604 -3.592845 2.156722 1.064348 9.230991 2.735900 -0.079300 5.829000 -2.711416 3.351126 -3.758573 -79.524552 30.082566 43.221238 57.500270 -56.900937 -42.103894 -0.884068 -2.506142 -15.283030 20.072239 4.212431 2.552200 -7.125000 0.000000 0.000000 -4.347000 36.891800 0.869100 0.289158 -2.219817 -1.043693 74.951360 -14.831976 53.304416 -118.622621 58.582467 -88.883440 1.684920 -0.958186 -11.225997 -16.013941 26.125734 -8.195700 7.125000 0.000000 0.000000 7.550300 -1.839100 7.369000 
-11.715630 17.688839 -34.431214 -0.935369 -3.787374 -2.825787 -0.692978 -0.388645 -0.124250 -15.656113 -9.637028 -32.148895 7.396591 16.971182 52.826227 -0.423999 3.735398 7.804490 1.036200 -6.474500 -18.167600 -0.423366 -1.121395 1.414045 21.970210 2.971546 -16.122658 -8.108504 -15.879096 53.707242 1.663760 -7.617104 2.633742 -1.468300 7.657600 -21.678800 2.236992 -0.355807 11.958650 1.411223 -0.258627 -1.819739 3.384527 0.263905 -3.879949 -8.215549 -0.480411 -4.092995 2.200216 0.240513 9.282373 2.640300 -0.449700 6.034200 -2.654577 3.377558 -3.666173 -77.896958 30.679394 45.516925 59.946001 -57.823460 -44.424960 -0.813756 -2.514679 -16.881050 19.925302 4.102475 2.483300 -7.125000 0.000000 0.000000 -4.462500 36.748200 0.908000 0.201469 -2.244611 -1.032131 75.401210 -14.426301 51.728417 -121.999175 57.532874 -91.106744 1.732398 -1.282848 -13.755104 -15.534735 30.858389 -9.231700 7.125000 0.000000 0.000000 8.413400 3.202200 8.965300 
